<?xml version="1.0" encoding="UTF-8"?>
<svg id="Layer_1" xmlns="http://www.w3.org/2000/svg" version="1.1" viewBox="0 0 17.68 17.68">
  <!-- Generator: Adobe Illustrator 29.7.1, SVG Export Plug-In . SVG Version: 2.1.1 Build 8)  -->
  <defs>
    <style>
      .st0 {
        fill: #fff;
      }

      .st1 {
        fill: #a5a4a4;
      }
    </style>
  </defs>
  <path class="st1" d="M0,8.84c0,4.88,3.96,8.84,8.84,8.84,4.88,0,8.84-3.96,8.84-8.84S13.72,0,8.84,0C3.96,0,0,3.96,0,8.84Z"/>
  <path class="st0" d="M15.58,8.47c-.21,0-.38.17-.38.38,0,3.38-2.65,6.15-5.98,6.34v-1.81c1.16-.1,2.26-.61,3.04-1.49.14-.15.12-.39-.03-.53-.15-.14-.39-.12-.53.03-.64.72-1.53,1.15-2.48,1.24v-2.02c.81-.17,1.42-.89,1.42-1.75,0-.53-.23-1-.59-1.32.05-.02.1-.04.13-.08l3.14-3.63c.07-.08.1-.18.09-.28,0-.1-.06-.19-.14-.26-1.27-1.01-2.8-1.54-4.42-1.54-3.92,0-7.11,3.19-7.11,7.11,0,.21.17.37.38.37s.38-.17.38-.37c0-3.38,2.65-6.14,5.98-6.34v1.8c-1.3.11-2.51.77-3.29,1.82-.12.17-.09.4.08.52.07.05.15.07.22.07.11,0,.23-.05.3-.15.65-.88,1.62-1.4,2.69-1.5v2.02c-.81.17-1.42.89-1.42,1.75,0,.64.34,1.2.85,1.52l-.22.12s-.08.05-.11.09l-2.86,3.57c-.06.08-.09.19-.08.29s.07.19.16.25c1.19.83,2.59,1.26,4.04,1.26,3.92,0,7.11-3.19,7.11-7.11,0-.21-.17-.38-.38-.38ZM9.69,6.85l-.47.1V2.49c1.18.07,2.3.45,3.26,1.13l-2.79,3.23ZM8.84,7.8c.58,0,1.04.47,1.04,1.04s-.47,1.04-1.04,1.04-1.04-.47-1.04-1.04.47-1.04,1.04-1.04ZM8.11,11.1l.35-.2v4.29c-1.03-.06-2.02-.37-2.9-.9l2.55-3.19Z"/>
</svg>